<?xml version="1.0" encoding="utf-8"?>
<!-- Generator: Adobe Illustrator 24.0.1, SVG Export Plug-In . SVG Version: 6.00 Build 0)  -->
<svg version="1.1" id="Layer_1" xmlns="http://www.w3.org/2000/svg" xmlns:xlink="http://www.w3.org/1999/xlink" x="0px" y="0px"
	 viewBox="0 0 420 100" style="enable-background:new 0 0 420 100;" xml:space="preserve">
<style type="text/css">
	.st0{fill:#FFFFFF;}
	.st1{opacity:0.5;fill:#FFFFFF;}
	.st2{opacity:0.75;fill:#FFFFFF;}
	.st3{fill:url(#SVGID_1_);}
</style>
<g>
	<path class="st0" d="M25.24,33.92c0.41,0.4,0.6,0.98,0.5,1.55l-2.3,13.39c-0.25,1.43,1.26,2.53,2.55,1.85l12.02-6.32
		c0.51-0.27,1.12-0.27,1.63,0l12.02,6.32c1.29,0.68,2.79-0.42,2.55-1.85l-2.3-13.39c-0.1-0.57,0.09-1.15,0.5-1.55l9.73-9.48
		c1.04-1.02,0.47-2.78-0.97-2.99l-13.44-1.95c-0.57-0.08-1.07-0.44-1.32-0.96L40.4,6.35c-0.64-1.3-2.5-1.3-3.15,0l-6.01,12.18
		c-0.26,0.52-0.75,0.88-1.32,0.96l-13.44,1.95c-1.44,0.21-2.01,1.98-0.97,2.99L25.24,33.92z"/>
	<path class="st1" d="M39.09,80.66l-3.82-0.56c-0.57-0.08-1.07-0.44-1.32-0.96l-1.71-3.47c-0.64-1.3-2.5-1.3-3.15,0l-1.71,3.47
		c-0.26,0.52-0.75,0.88-1.32,0.96l-3.82,0.56c-1.44,0.21-2.01,1.98-0.97,2.99l2.77,2.7c0.41,0.4,0.6,0.98,0.5,1.55l-0.65,3.81
		c-0.25,1.43,1.26,2.53,2.55,1.85l3.42-1.8c0.51-0.27,1.12-0.27,1.63,0l3.42,1.8c1.29,0.68,2.79-0.42,2.55-1.85l-0.65-3.81
		c-0.1-0.57,0.09-1.15,0.5-1.55l2.77-2.7C41.1,82.64,40.52,80.87,39.09,80.66z"/>
	<path class="st2" d="M26,73.46l-1.12-6.52c-0.1-0.57,0.09-1.15,0.5-1.55l4.74-4.62c1.04-1.02,0.47-2.78-0.97-2.99l-6.55-0.95
		c-0.57-0.08-1.07-0.44-1.32-0.96l-2.93-5.93c-0.64-1.3-2.5-1.3-3.15,0l-2.93,5.93c-0.26,0.52-0.75,0.88-1.32,0.96l-6.55,0.95
		c-1.44,0.21-2.01,1.98-0.97,2.99l4.74,4.62c0.41,0.4,0.6,0.98,0.5,1.55l-1.12,6.52c-0.25,1.43,1.26,2.53,2.55,1.85l5.86-3.08
		c0.51-0.27,1.12-0.27,1.63,0l5.86,3.08C24.74,75.99,26.25,74.9,26,73.46z"/>
	<linearGradient id="SVGID_1_" gradientUnits="userSpaceOnUse" x1="79.7389" y1="45.6507" x2="56.1753" y2="89.8689">
		<stop  offset="0" style="stop-color:#FFFFFF"/>
		<stop  offset="0.6346" style="stop-color:#FFFFFF;stop-opacity:0.5"/>
	</linearGradient>
	<path class="st3" d="M80.51,30.63c-9.11-4.36-20,1.88-20.81,11.97c-0.3,3.77,0.97,7.15,2.9,10.31c1.62,2.67,3.49,5.14,4.33,8.19
		c3.12,11.39-6.25,20.6-16.06,24.32c-1.56,0.59-3.18,1.13-4.81,1.48c-1.39,0.3-2.69,0.65-3.32,2.1c-1.05,2.44,1.16,4.29,3.44,4.39
		c7.84,0.32,15.91-1,23.15-4.04c5.08-2.13,9.77-5.19,13.62-9.15c8.38-8.6,11.08-21.6,8.38-33.12C89.86,40.8,86.63,33.56,80.51,30.63
		z"/>
	<path class="st2" d="M142.32,35.96c-2.75-1.42-5.93-2.12-9.53-2.12h-14.23v33.78h14.23c3.6,0,6.78-0.71,9.53-2.12
		c2.75-1.42,4.89-3.39,6.42-5.93c1.53-2.54,2.29-5.49,2.29-8.83c0-3.35-0.76-6.29-2.29-8.83C147.21,39.36,145.07,37.38,142.32,35.96
		z M144.52,57.36c-1.13,1.92-2.71,3.4-4.75,4.46c-2.04,1.06-4.46,1.59-7.26,1.59h-9.12V38.04h9.12c2.8,0,5.22,0.53,7.26,1.59
		c2.04,1.06,3.63,2.54,4.75,4.44c1.13,1.9,1.69,4.12,1.69,6.66C146.21,53.24,145.64,55.45,144.52,57.36z"/>
	<rect x="157.74" y="42.04" class="st2" width="4.63" height="25.58"/>
	<path class="st2" d="M160.05,31.09c-0.9,0-1.65,0.29-2.24,0.87s-0.89,1.3-0.89,2.17c0,0.84,0.3,1.54,0.89,2.12s1.34,0.87,2.24,0.87
		c0.93,0,1.69-0.3,2.27-0.89c0.58-0.59,0.87-1.33,0.87-2.19c0-0.84-0.3-1.54-0.89-2.1C161.7,31.37,160.95,31.09,160.05,31.09z"/>
	<path class="st2" d="M186.38,54.83c-0.95-0.48-2-0.86-3.16-1.13c-1.16-0.27-2.31-0.5-3.47-0.68s-2.21-0.4-3.16-0.65
		c-0.95-0.26-1.72-0.62-2.32-1.09c-0.6-0.47-0.89-1.13-0.89-2c0-1.03,0.5-1.87,1.5-2.53c1-0.66,2.51-0.99,4.54-0.99
		c1.25,0,2.51,0.14,3.76,0.43c1.25,0.29,2.46,0.82,3.62,1.59l1.98-3.67c-1.09-0.74-2.5-1.31-4.22-1.71
		c-1.72-0.4-3.42-0.61-5.09-0.61c-2.19,0-4.08,0.32-5.67,0.94c-1.59,0.63-2.82,1.52-3.69,2.68c-0.87,1.16-1.3,2.51-1.3,4.05
		c0,1.48,0.29,2.66,0.87,3.55c0.58,0.88,1.35,1.58,2.32,2.07c0.97,0.5,2.03,0.88,3.19,1.16c1.16,0.27,2.32,0.5,3.47,0.67
		c1.16,0.18,2.21,0.38,3.16,0.6c0.95,0.23,1.71,0.57,2.29,1.01c0.58,0.45,0.87,1.08,0.87,1.88c0,1.09-0.47,1.95-1.42,2.56
		c-0.95,0.61-2.5,0.92-4.66,0.92c-1.67,0-3.31-0.26-4.92-0.77c-1.61-0.51-2.96-1.14-4.05-1.88l-1.93,3.67
		c1.09,0.84,2.6,1.55,4.51,2.12c1.91,0.58,3.93,0.87,6.06,0.87c2.28,0,4.25-0.31,5.89-0.94c1.64-0.63,2.91-1.5,3.81-2.63
		c0.9-1.13,1.35-2.46,1.35-4c0-1.45-0.3-2.61-0.89-3.47C188.1,55.99,187.32,55.31,186.38,54.83z"/>
	<path class="st2" d="M201.99,46.96c1.32-0.74,2.82-1.11,4.49-1.11c1.38,0,2.68,0.3,3.89,0.89c1.21,0.59,2.23,1.52,3.06,2.77
		l3.52-2.27c-1-1.8-2.4-3.16-4.22-4.08c-1.82-0.92-3.89-1.38-6.2-1.38c-2.6,0-4.93,0.56-6.97,1.67c-2.04,1.11-3.64,2.65-4.8,4.61
		c-1.16,1.96-1.74,4.21-1.74,6.76s0.58,4.79,1.74,6.76c1.16,1.96,2.76,3.51,4.8,4.63c2.04,1.13,4.37,1.69,6.97,1.69
		c2.32,0,4.38-0.47,6.2-1.42c1.82-0.95,3.22-2.31,4.22-4.08l-3.52-2.22c-0.84,1.26-1.86,2.18-3.06,2.78
		c-1.21,0.59-2.5,0.89-3.89,0.89c-1.67,0-3.17-0.37-4.49-1.11c-1.32-0.74-2.36-1.78-3.14-3.13c-0.77-1.35-1.16-2.94-1.16-4.78
		c0-1.84,0.39-3.42,1.16-4.75C199.62,48.74,200.67,47.71,201.99,46.96z"/>
	<path class="st2" d="M240.32,43.47c-2.01-1.11-4.29-1.67-6.83-1.67c-2.57,0-4.86,0.56-6.85,1.67c-2,1.11-3.57,2.65-4.73,4.61
		c-1.16,1.96-1.74,4.21-1.74,6.76c0,2.51,0.58,4.75,1.74,6.73c1.16,1.98,2.73,3.53,4.73,4.66s4.28,1.69,6.85,1.69
		c2.54,0,4.82-0.56,6.83-1.69c2.01-1.13,3.59-2.67,4.73-4.63c1.14-1.96,1.71-4.21,1.71-6.76c0-2.57-0.57-4.83-1.71-6.78
		C243.91,46.1,242.33,44.58,240.32,43.47z M240.97,59.58c-0.74,1.37-1.76,2.42-3.06,3.16c-1.3,0.74-2.78,1.11-4.42,1.11
		c-1.64,0-3.1-0.37-4.39-1.11c-1.29-0.74-2.32-1.79-3.09-3.16c-0.77-1.37-1.16-2.95-1.16-4.75c0-1.84,0.39-3.42,1.16-4.75
		c0.77-1.33,1.8-2.37,3.09-3.11c1.29-0.74,2.75-1.11,4.39-1.11c1.64,0,3.11,0.37,4.42,1.11c1.3,0.74,2.32,1.78,3.06,3.11
		c0.74,1.34,1.11,2.92,1.11,4.75C242.08,56.63,241.71,58.22,240.97,59.58z"/>
	<polygon class="st2" points="261.59,62.53 252.8,42.04 247.97,42.04 259.17,67.62 263.9,67.62 275.09,42.04 270.55,42.04 	"/>
	<path class="st2" d="M295.74,43.44c-1.9-1.09-4.09-1.64-6.57-1.64c-2.44,0-4.64,0.56-6.58,1.67c-1.95,1.11-3.48,2.65-4.58,4.61
		c-1.11,1.96-1.67,4.21-1.67,6.76s0.57,4.79,1.71,6.76c1.14,1.96,2.75,3.51,4.83,4.63s4.48,1.69,7.21,1.69
		c2.12,0,4.04-0.36,5.77-1.06c1.72-0.71,3.16-1.74,4.32-3.09l-2.56-2.99c-0.94,1.03-2.02,1.8-3.26,2.32
		c-1.24,0.51-2.61,0.77-4.13,0.77c-1.83,0-3.46-0.37-4.87-1.11c-1.42-0.74-2.52-1.78-3.31-3.11c-0.58-0.98-0.87-2.08-1.02-3.26
		h20.69c0.03-0.22,0.06-0.47,0.07-0.72c0.02-0.26,0.03-0.48,0.03-0.67c0-2.64-0.54-4.95-1.62-6.93
		C299.13,46.07,297.64,44.54,295.74,43.44z M281.02,53.04c0.14-1.16,0.4-2.25,0.92-3.21c0.7-1.3,1.69-2.32,2.94-3.04
		c1.26-0.72,2.69-1.09,4.29-1.09c1.64,0,3.08,0.36,4.32,1.09c1.24,0.72,2.21,1.73,2.92,3.02c0.53,0.97,0.79,2.07,0.9,3.23H281.02z"
		/>
	<path class="st2" d="M312.68,46.38v-4.34h-4.44v25.58h4.63V54.88c0-2.8,0.72-4.94,2.17-6.42c1.45-1.48,3.41-2.22,5.89-2.22
		c0.16,0,0.33,0,0.51,0c0.18,0,0.36,0.02,0.55,0.05V41.8c-2.44,0-4.5,0.47-6.18,1.4C314.44,43.97,313.4,45.04,312.68,46.38z"/>
	<polygon class="st0" points="348.77,33.84 340.74,47.24 332.75,33.84 322.67,33.84 335.55,55.37 335.55,67.62 345.11,67.62 
		345.11,55.51 358.04,33.84 	"/>
	<path class="st0" d="M377.89,42.74c-2.24-1.14-4.79-1.71-7.65-1.71c-2.86,0-5.41,0.57-7.63,1.71c-2.22,1.14-3.96,2.73-5.23,4.75
		s-1.91,4.36-1.91,7c0,2.64,0.64,4.98,1.91,7.02c1.27,2.04,3.02,3.64,5.23,4.8c2.22,1.16,4.76,1.74,7.63,1.74
		c2.86,0,5.41-0.58,7.65-1.74c2.24-1.16,3.98-2.76,5.24-4.8c1.26-2.04,1.88-4.38,1.88-7.02c0-2.64-0.63-4.97-1.88-7
		C381.87,45.47,380.13,43.88,377.89,42.74z M375.02,57.9c-0.48,0.95-1.13,1.67-1.96,2.15c-0.82,0.48-1.76,0.72-2.82,0.72
		c-1.03,0-1.96-0.24-2.77-0.72c-0.82-0.48-1.48-1.2-1.98-2.15c-0.5-0.95-0.75-2.08-0.75-3.4c0-1.32,0.25-2.44,0.75-3.35
		c0.5-0.92,1.16-1.62,1.98-2.1c0.82-0.48,1.74-0.72,2.77-0.72c1.06,0,2,0.24,2.82,0.72c0.82,0.48,1.47,1.18,1.96,2.1
		c0.48,0.92,0.72,2.03,0.72,3.35C375.74,55.81,375.51,56.95,375.02,57.9z"/>
	<path class="st0" d="M407.59,41.47v12.59c0,1.45-0.23,2.63-0.68,3.55c-0.45,0.92-1.05,1.59-1.78,2c-0.74,0.42-1.56,0.63-2.46,0.63
		c-1.38,0-2.45-0.43-3.21-1.3c-0.76-0.87-1.13-2.32-1.13-4.34V41.47h-9.17v14.62c0,2.73,0.47,4.99,1.42,6.78
		c0.95,1.78,2.27,3.09,3.96,3.93c1.69,0.84,3.6,1.26,5.72,1.26c2,0,3.84-0.47,5.55-1.42c0.84-0.47,1.58-1.05,2.22-1.76v2.75h8.74
		V41.47H407.59z"/>
</g>
</svg>
